<svg xmlns="http://www.w3.org/2000/svg" viewBox="0 0 32 40" x="0px" y="0px"><path d="m21.81982,1.77002h-11.63965c-2.0127,0-3.6499,1.63721-3.6499,3.6499v23.3501c0,.36279.19678.69775.51416.87402.31641.17578.7041.16699,1.01367-.02441l7.94189-4.93262,7.94189,4.93262c.16162.1001.34473.15039.52783.15039.16699,0,.33447-.04199.48584-.12598.31738-.17627.51416-.51123.51416-.87402V5.41992c0-2.0127-1.63721-3.6499-3.6499-3.6499Zm1.6499,25.20166l-6.94189-4.31152c-.16162-.1001-.34473-.15039-.52783-.15039s-.36621.05029-.52783.15039l-6.94189,4.31152V5.41992c0-.90967.74023-1.6499,1.6499-1.6499h11.63965c.90967,0,1.6499.74023,1.6499,1.6499v21.55176Z"/><text x="0" y="47" fill="#000000" font-size="5px" font-weight="bold" font-family="'Helvetica Neue', Helvetica, Arial-Unicode, Arial, Sans-serif">Created by Contributor Icons</text><text x="0" y="52" fill="#000000" font-size="5px" font-weight="bold" font-family="'Helvetica Neue', Helvetica, Arial-Unicode, Arial, Sans-serif">from the Noun Project</text></svg>